<svg height="24" viewBox="0 0 16 16" width="24" xmlns="http://www.w3.org/2000/svg"><path d="m15.268702 4.003125c.521875.565625.7625 1.240625.728125 2.053125v6.325c-.0125.825-.2875 1.503125-.828125 2.034375-.5375.53125-1.221875.809375-2.046875.834375h-10.2462501c-.8265625-.025-1.5065625-.30625-2.03999997-.85-.5330625-.54375-.81166562-1.259375-.835625-2.14375v-6.2c.02395938-.8125.3025625-1.4875.835625-2.053125.53343747-.5109375 1.21343747-.7915625 2.03999997-.815625h.918125l-.7921875-.8065625c-.1796875-.1790625-.2696875-.40625-.2696875-.6809375 0-.275.09-.501875.2696875-.6811563.1796875-.1792187.4078125-.2688437.6828125-.2688437s.503125.089625.684375.2688437l2.290625 2.1686563h2.75l2.3281251-2.1686563c.190625-.1792187.425-.2688437.7-.2688437s.503125.089625.684375.2688437c.178125.1792813.26875.4061563.26875.6811563 0 .2746875-.09062.501875-.26875.6809375l-.790625.8065625h.915625c.825.024062 1.5.3046875 2.021875.815625zm-1.2125 2.178125c-.0125-.3-.115625-.54375-.334375-.734375-.1625-.190625-.4375-.29375-.709375-.30625h-10.0109376c-.2996875.0125-.5453125.115625-.736875.30625-.191875.190625-.29375.434375-.305625.734375v6.075c0 .2875.101875.53125.305625.734375s.449375.30625.736875.30625h10.0109376c.2875 0 .53125-.103125.728125-.30625s.303125-.446875.315625-.734375zm-8.2593751 1.334375c.196875.196875.303125.440625.315625.725v1.040625c-.0125.2875-.115625.528125-.30625.725-.19375.196875-.4375.296875-.7375.296875s-.546875-.1-.7375-.296875-.29375-.4375-.30625-.725v-1.040625c.0125-.284375.11875-.528125.315625-.725s.4125-.3.728125-.3125c.2875.0125.53125.115625.728125.3125zm5.9843751 0c.196875.196875.303125.440625.315625.725v1.040625c-.0125.2875-.115625.528125-.30625.725s-.4375.296875-.7375.296875-.54375-.1-.7375-.296875c-.21875-.196875-.29375-.4375-.303125-.725v-1.040625c.0094-.284375.115625-.528125.3125-.725s.440625-.3.728125-.3125c.2875.0125.53125.115625.728125.3125z" fill="#02b5da" stroke-width=".03125"/></svg>