<svg height="24" viewBox="0 0 16 16" width="24" xmlns="http://www.w3.org/2000/svg"><path d="m0 3.111111v1.333334c0 .491666.39722222.888889.88888889.888889h.44444441 1.3333334v-2.222223c0-.736111-.5972223-1.333333-1.3333334-1.333333-.73611108 0-1.3333333.597222-1.3333333 1.333333zm3.1111111-1.333333c.2777778.372222.4444445.833333.4444445 1.333333v8.444445c0 .980555.7972222 1.777778 1.7777777 1.777778.9805556 0 1.7777778-.797223 1.7777778-1.777778v-.147222c0-.9.7305556-1.630556 1.6305556-1.630556h4.5916663v-5.333333c0-1.472223-1.194444-2.666667-2.666666-2.666667zm9.7777779 12.444444c1.719444 0 3.111111-1.391666 3.111111-3.111111 0-.244444-.2-.444444-.444444-.444444h-6.8138893c-.4083334 0-.7416667.330555-.7416667.741667v.147222c0 1.472222-1.1944444 2.666666-2.6666667 2.666666h4.8888887z" fill="#02b5da" stroke-width=".027778"/></svg>